<svg width="36" height="36" viewBox="0 0 36 36" fill="none" xmlns="http://www.w3.org/2000/svg">
<path d="M30.0466 14.2966L18.7966 25.5466C18.6921 25.6512 18.568 25.7341 18.4314 25.7908C18.2949 25.8474 18.1485 25.8765 18.0006 25.8765C17.8528 25.8765 17.7064 25.8474 17.5698 25.7908C17.4332 25.7341 17.3092 25.6512 17.2047 25.5466L5.95469 14.2966C5.74359 14.0855 5.625 13.7992 5.625 13.5006C5.625 13.2021 5.74359 12.9158 5.95469 12.7047C6.16578 12.4936 6.45209 12.375 6.75063 12.375C7.04916 12.375 7.33547 12.4936 7.54656 12.7047L18.0006 23.1602L28.4547 12.7047C28.5592 12.6002 28.6833 12.5173 28.8199 12.4607C28.9564 12.4041 29.1028 12.375 29.2506 12.375C29.3984 12.375 29.5448 12.4041 29.6814 12.4607C29.818 12.5173 29.942 12.6002 30.0466 12.7047C30.1511 12.8092 30.234 12.9333 30.2906 13.0699C30.3471 13.2064 30.3763 13.3528 30.3763 13.5006C30.3763 13.6484 30.3471 13.7948 30.2906 13.9314C30.234 14.068 30.1511 14.192 30.0466 14.2966Z" fill="#D9D9D9"/>
</svg>
