<svg width="24" height="24" viewBox="0 0 24 24" fill="none" xmlns="http://www.w3.org/2000/svg">
<path d="M15.5625 10.5C15.5625 10.6492 15.5032 10.7923 15.3977 10.8977C15.2923 11.0032 15.1492 11.0625 15 11.0625H9C8.85082 11.0625 8.70774 11.0032 8.60225 10.8977C8.49676 10.7923 8.4375 10.6492 8.4375 10.5C8.4375 10.3508 8.49676 10.2077 8.60225 10.1023C8.70774 9.99676 8.85082 9.9375 9 9.9375H15C15.1492 9.9375 15.2923 9.99676 15.3977 10.1023C15.5032 10.2077 15.5625 10.3508 15.5625 10.5ZM15 12.9375H9C8.85082 12.9375 8.70774 12.9968 8.60225 13.1023C8.49676 13.2077 8.4375 13.3508 8.4375 13.5C8.4375 13.6492 8.49676 13.7923 8.60225 13.8977C8.70774 14.0032 8.85082 14.0625 9 14.0625H15C15.1492 14.0625 15.2923 14.0032 15.3977 13.8977C15.5032 13.7923 15.5625 13.6492 15.5625 13.5C15.5625 13.3508 15.5032 13.2077 15.3977 13.1023C15.2923 12.9968 15.1492 12.9375 15 12.9375ZM21.5625 11.625C21.5598 14.0608 20.5909 16.3961 18.8685 18.1185C17.1461 19.8409 14.8108 20.8098 12.375 20.8125H4.46906C4.12925 20.8123 3.80342 20.6772 3.56314 20.4369C3.32285 20.1966 3.18775 19.8708 3.1875 19.5309V11.625C3.1875 9.18832 4.15547 6.85145 5.87846 5.12846C7.60145 3.40547 9.93832 2.4375 12.375 2.4375C14.8117 2.4375 17.1486 3.40547 18.8715 5.12846C20.5945 6.85145 21.5625 9.18832 21.5625 11.625ZM20.4375 11.625C20.4375 9.48669 19.5881 7.43596 18.076 5.92395C16.564 4.41194 14.5133 3.5625 12.375 3.5625C10.2367 3.5625 8.18596 4.41194 6.67395 5.92395C5.16194 7.43596 4.3125 9.48669 4.3125 11.625V19.5309C4.3125 19.5725 4.32899 19.6123 4.35836 19.6416C4.38772 19.671 4.42754 19.6875 4.46906 19.6875H12.375C14.5125 19.685 16.5618 18.8348 18.0733 17.3233C19.5848 15.8118 20.435 13.7625 20.4375 11.625Z" fill="#D9D9D9"/>
</svg>
