<svg width="32" height="33" viewBox="0 0 32 33" fill="none" xmlns="http://www.w3.org/2000/svg">
<path d="M15 10.5C15 11.4889 14.7068 12.4556 14.1573 13.2779C13.6079 14.1001 12.827 14.741 11.9134 15.1194C10.9998 15.4978 9.99446 15.5969 9.02455 15.4039C8.05465 15.211 7.16373 14.7348 6.46447 14.0355C5.76521 13.3363 5.289 12.4454 5.09608 11.4755C4.90315 10.5055 5.00217 9.50022 5.3806 8.58659C5.75904 7.67295 6.39991 6.89206 7.22215 6.34265C8.0444 5.79325 9.0111 5.5 10 5.5C11.3261 5.5 12.5979 6.02679 13.5355 6.96447C14.4732 7.90215 15 9.17392 15 10.5ZM22 15.5C22.9889 15.5 23.9556 15.2068 24.7779 14.6573C25.6001 14.1079 26.241 13.327 26.6194 12.4134C26.9978 11.4998 27.0969 10.4945 26.9039 9.52455C26.711 8.55465 26.2348 7.66373 25.5355 6.96447C24.8363 6.26521 23.9454 5.789 22.9755 5.59608C22.0055 5.40315 21.0002 5.50217 20.0866 5.8806C19.173 6.25904 18.3921 6.89991 17.8427 7.72215C17.2932 8.5444 17 9.5111 17 10.5C17 11.8261 17.5268 13.0979 18.4645 14.0355C19.4022 14.9732 20.6739 15.5 22 15.5ZM10 17.5C9.0111 17.5 8.0444 17.7932 7.22215 18.3427C6.39991 18.8921 5.75904 19.673 5.3806 20.5866C5.00217 21.5002 4.90315 22.5055 5.09608 23.4755C5.289 24.4454 5.76521 25.3363 6.46447 26.0355C7.16373 26.7348 8.05465 27.211 9.02455 27.4039C9.99446 27.5969 10.9998 27.4978 11.9134 27.1194C12.827 26.741 13.6079 26.1001 14.1573 25.2779C14.7068 24.4556 15 23.4889 15 22.5C15 21.1739 14.4732 19.9022 13.5355 18.9645C12.5979 18.0268 11.3261 17.5 10 17.5ZM22 17.5C21.0111 17.5 20.0444 17.7932 19.2222 18.3427C18.3999 18.8921 17.759 19.673 17.3806 20.5866C17.0022 21.5002 16.9031 22.5055 17.0961 23.4755C17.289 24.4454 17.7652 25.3363 18.4645 26.0355C19.1637 26.7348 20.0546 27.211 21.0245 27.4039C21.9945 27.5969 22.9998 27.4978 23.9134 27.1194C24.8271 26.741 25.6079 26.1001 26.1574 25.2779C26.7068 24.4556 27 23.4889 27 22.5C27 21.1739 26.4732 19.9022 25.5355 18.9645C24.5979 18.0268 23.3261 17.5 22 17.5Z" fill="#D9D9D9"/>
</svg>
