<svg width="32" height="33" viewBox="0 0 32 33" fill="none" xmlns="http://www.w3.org/2000/svg">
<path d="M10 5.5C9.0111 5.5 8.0444 5.79325 7.22215 6.34265C6.39991 6.89206 5.75904 7.67295 5.3806 8.58659C5.00217 9.50022 4.90315 10.5055 5.09608 11.4755C5.289 12.4454 5.76521 13.3363 6.46447 14.0355C7.16373 14.7348 8.05465 15.211 9.02455 15.4039C9.99446 15.5969 10.9998 15.4978 11.9134 15.1194C12.827 14.741 13.6079 14.1001 14.1573 13.2779C14.7068 12.4556 15 11.4889 15 10.5C15 9.17392 14.4732 7.90215 13.5355 6.96447C12.5979 6.02679 11.3261 5.5 10 5.5ZM10 13.5C9.40666 13.5 8.82664 13.3241 8.33329 12.9944C7.83994 12.6648 7.45543 12.1962 7.22836 11.6481C7.0013 11.0999 6.94189 10.4967 7.05765 9.91473C7.1734 9.33279 7.45912 8.79824 7.87868 8.37868C8.29824 7.95912 8.83279 7.6734 9.41473 7.55765C9.99667 7.44189 10.5999 7.5013 11.1481 7.72836C11.6962 7.95543 12.1648 8.33994 12.4944 8.83329C12.8241 9.32664 13 9.90666 13 10.5C13 11.2957 12.6839 12.0587 12.1213 12.6213C11.5587 13.1839 10.7957 13.5 10 13.5ZM22 15.5C22.9889 15.5 23.9556 15.2068 24.7779 14.6573C25.6001 14.1079 26.241 13.327 26.6194 12.4134C26.9978 11.4998 27.0969 10.4945 26.9039 9.52455C26.711 8.55465 26.2348 7.66373 25.5355 6.96447C24.8363 6.26521 23.9454 5.789 22.9755 5.59608C22.0055 5.40315 21.0002 5.50217 20.0866 5.8806C19.173 6.25904 18.3921 6.89991 17.8427 7.72215C17.2932 8.5444 17 9.5111 17 10.5C17 11.8261 17.5268 13.0979 18.4645 14.0355C19.4022 14.9732 20.6739 15.5 22 15.5ZM22 7.5C22.5933 7.5 23.1734 7.67595 23.6667 8.00559C24.1601 8.33524 24.5446 8.80377 24.7716 9.35195C24.9987 9.90013 25.0581 10.5033 24.9424 11.0853C24.8266 11.6672 24.5409 12.2018 24.1213 12.6213C23.7018 13.0409 23.1672 13.3266 22.5853 13.4424C22.0033 13.5581 21.4001 13.4987 20.852 13.2716C20.3038 13.0446 19.8352 12.6601 19.5056 12.1667C19.1759 11.6734 19 11.0933 19 10.5C19 9.70435 19.3161 8.94129 19.8787 8.37868C20.4413 7.81607 21.2044 7.5 22 7.5ZM10 17.5C9.0111 17.5 8.0444 17.7932 7.22215 18.3427C6.39991 18.8921 5.75904 19.673 5.3806 20.5866C5.00217 21.5002 4.90315 22.5055 5.09608 23.4755C5.289 24.4454 5.76521 25.3363 6.46447 26.0355C7.16373 26.7348 8.05465 27.211 9.02455 27.4039C9.99446 27.5969 10.9998 27.4978 11.9134 27.1194C12.827 26.741 13.6079 26.1001 14.1573 25.2779C14.7068 24.4556 15 23.4889 15 22.5C15 21.1739 14.4732 19.9022 13.5355 18.9645C12.5979 18.0268 11.3261 17.5 10 17.5ZM10 25.5C9.40666 25.5 8.82664 25.3241 8.33329 24.9944C7.83994 24.6648 7.45543 24.1962 7.22836 23.6481C7.0013 23.0999 6.94189 22.4967 7.05765 21.9147C7.1734 21.3328 7.45912 20.7982 7.87868 20.3787C8.29824 19.9591 8.83279 19.6734 9.41473 19.5576C9.99667 19.4419 10.5999 19.5013 11.1481 19.7284C11.6962 19.9554 12.1648 20.3399 12.4944 20.8333C12.8241 21.3266 13 21.9067 13 22.5C13 23.2957 12.6839 24.0587 12.1213 24.6213C11.5587 25.1839 10.7957 25.5 10 25.5ZM22 17.5C21.0111 17.5 20.0444 17.7932 19.2222 18.3427C18.3999 18.8921 17.759 19.673 17.3806 20.5866C17.0022 21.5002 16.9031 22.5055 17.0961 23.4755C17.289 24.4454 17.7652 25.3363 18.4645 26.0355C19.1637 26.7348 20.0546 27.211 21.0245 27.4039C21.9945 27.5969 22.9998 27.4978 23.9134 27.1194C24.8271 26.741 25.6079 26.1001 26.1574 25.2779C26.7068 24.4556 27 23.4889 27 22.5C27 21.1739 26.4732 19.9022 25.5355 18.9645C24.5979 18.0268 23.3261 17.5 22 17.5ZM22 25.5C21.4067 25.5 20.8266 25.3241 20.3333 24.9944C19.8399 24.6648 19.4554 24.1962 19.2284 23.6481C19.0013 23.0999 18.9419 22.4967 19.0576 21.9147C19.1734 21.3328 19.4591 20.7982 19.8787 20.3787C20.2982 19.9591 20.8328 19.6734 21.4147 19.5576C21.9967 19.4419 22.5999 19.5013 23.1481 19.7284C23.6962 19.9554 24.1648 20.3399 24.4944 20.8333C24.8241 21.3266 25 21.9067 25 22.5C25 23.2957 24.6839 24.0587 24.1213 24.6213C23.5587 25.1839 22.7957 25.5 22 25.5Z" fill="#D9D9D9"/>
</svg>
