<svg width="24" height="24" viewBox="0 0 24 24" fill="none" xmlns="http://www.w3.org/2000/svg">
<path d="M21.3956 11.0269L19.5309 3.89064C19.4823 3.69676 19.3726 3.52367 19.218 3.3969C19.0635 3.27014 18.8723 3.19643 18.6726 3.18666C18.473 3.17689 18.2755 3.23157 18.1093 3.34263C17.9431 3.4537 17.817 3.61525 17.7497 3.80345L16.0481 8.43845H7.95373L6.25029 3.80345C6.18295 3.61525 6.05687 3.4537 5.89068 3.34263C5.72449 3.23157 5.52699 3.17689 5.32734 3.18666C5.1277 3.19643 4.93648 3.27014 4.78193 3.3969C4.62738 3.52367 4.51769 3.69676 4.46904 3.89064L2.60623 11.0269C2.34116 12.0392 2.3893 13.108 2.74431 14.0924C3.09932 15.0767 3.74449 15.9303 4.59467 16.5403L11.4637 21.3938C11.6207 21.5042 11.808 21.5635 12 21.5635C12.1919 21.5635 12.3792 21.5042 12.5362 21.3938L19.4072 16.5403C20.2573 15.9303 20.9025 15.0767 21.2575 14.0924C21.6125 13.108 21.6607 12.0392 21.3956 11.0269ZM5.4056 4.76533L7.03217 9.19502C7.07193 9.30321 7.14398 9.39657 7.23855 9.46246C7.33312 9.52836 7.44565 9.56361 7.56092 9.56345H16.4409C16.5562 9.56361 16.6687 9.52836 16.7633 9.46246C16.8579 9.39657 16.9299 9.30321 16.9697 9.19502L18.5972 4.76533L20.0034 10.1578L12.0009 15.8128L3.99654 10.1578L5.4056 4.76533ZM3.69279 11.3203L11.0259 16.501L8.7581 18.1041L5.24529 15.6216C4.58234 15.1453 4.07916 14.4795 3.80204 13.7117C3.52491 12.9439 3.48682 12.1102 3.69279 11.3203ZM12.0009 20.3944L9.7331 18.7922L12.0009 17.19L14.2687 18.7922L12.0009 20.3944ZM18.7565 15.6216L15.2437 18.1041L12.9759 16.501L20.309 11.3203C20.515 12.1102 20.4769 12.9439 20.1998 13.7117C19.9227 14.4795 19.4195 15.1453 18.7565 15.6216Z" fill="#D9D9D9"/>
</svg>
