<svg width="24" height="25" viewBox="0 0 24 25" fill="none" xmlns="http://www.w3.org/2000/svg">
<path d="M12 2.9375C10.1087 2.9375 8.25991 3.49833 6.68736 4.54907C5.11482 5.59981 3.88917 7.09327 3.16541 8.84059C2.44164 10.5879 2.25227 12.5106 2.62125 14.3656C2.99022 16.2205 3.90096 17.9244 5.2383 19.2617C6.57564 20.599 8.27951 21.5098 10.1345 21.8788C11.9894 22.2477 13.9121 22.0584 15.6594 21.3346C17.4067 20.6108 18.9002 19.3852 19.9509 17.8126C21.0017 16.2401 21.5625 14.3913 21.5625 12.5C21.5595 9.96478 20.5511 7.53425 18.7584 5.74158C16.9658 3.94891 14.5352 2.94048 12 2.9375ZM19.6472 8.9375H15.8803C15.4704 7.23724 14.7228 5.63677 13.6819 4.23125C14.9741 4.4968 16.1864 5.0606 17.2221 5.8777C18.2578 6.69479 19.0882 7.74258 19.6472 8.9375ZM20.4375 12.5C20.4381 13.3257 20.3172 14.147 20.0784 14.9375H16.1119C16.3794 13.3235 16.3794 11.6765 16.1119 10.0625H20.0784C20.3172 10.853 20.4381 11.6743 20.4375 12.5ZM12 20.9375C11.9766 20.9376 11.9535 20.9328 11.9321 20.9232C11.9108 20.9137 11.8918 20.8997 11.8763 20.8822C10.6688 19.5819 9.78188 17.9122 9.28125 16.0625H14.7188C14.2181 17.9122 13.3313 19.5819 12.1238 20.8822C12.1083 20.8997 12.0892 20.9137 12.0679 20.9232C12.0465 20.9328 12.0234 20.9376 12 20.9375ZM9.02907 14.9375C8.74033 13.3253 8.74033 11.6747 9.02907 10.0625H14.9709C15.2597 11.6747 15.2597 13.3253 14.9709 14.9375H9.02907ZM3.5625 12.5C3.56187 11.6743 3.68286 10.853 3.92157 10.0625H7.88813C7.62061 11.6765 7.62061 13.3235 7.88813 14.9375H3.92157C3.68286 14.147 3.56187 13.3257 3.5625 12.5ZM12 4.0625C12.0234 4.06237 12.0465 4.06724 12.0679 4.07678C12.0892 4.08632 12.1083 4.10031 12.1238 4.11781C13.3313 5.41812 14.2181 7.08781 14.7188 8.9375H9.28125C9.78188 7.08781 10.6688 5.41812 11.8763 4.11781C11.8918 4.10031 11.9108 4.08632 11.9321 4.07678C11.9535 4.06724 11.9766 4.06237 12 4.0625ZM10.3181 4.23125C9.27724 5.63677 8.52961 7.23724 8.11969 8.9375H4.35282C4.9118 7.74258 5.74225 6.69479 6.77795 5.8777C7.81364 5.0606 9.02593 4.4968 10.3181 4.23125ZM4.35282 16.0625H8.11969C8.52961 17.7628 9.27724 19.3632 10.3181 20.7687C9.02593 20.5032 7.81364 19.9394 6.77795 19.1223C5.74225 18.3052 4.9118 17.2574 4.35282 16.0625ZM13.6819 20.7687C14.7228 19.3632 15.4704 17.7628 15.8803 16.0625H19.6472C19.0882 17.2574 18.2578 18.3052 17.2221 19.1223C16.1864 19.9394 14.9741 20.5032 13.6819 20.7687Z" fill="white"/>
</svg>
