<svg width="24" height="24" viewBox="0 0 24 24" fill="none" xmlns="http://www.w3.org/2000/svg">
<path d="M16.3126 21.7504C16.3126 21.8996 16.2534 22.0426 16.1479 22.1481C16.0424 22.2536 15.8993 22.3129 15.7501 22.3129H8.25013C8.10094 22.3129 7.95787 22.2536 7.85238 22.1481C7.74689 22.0426 7.68763 21.8996 7.68763 21.7504C7.68763 21.6012 7.74689 21.4581 7.85238 21.3526C7.95787 21.2471 8.10094 21.1879 8.25013 21.1879H15.7501C15.8993 21.1879 16.0424 21.2471 16.1479 21.3526C16.2534 21.4581 16.3126 21.6012 16.3126 21.7504ZM20.0626 9.75038C20.0658 10.9723 19.7897 12.1789 19.2555 13.2779C18.7213 14.3769 17.943 15.3393 16.9801 16.0916C16.7736 16.2503 16.6062 16.4541 16.4905 16.6875C16.3748 16.9208 16.314 17.1775 16.3126 17.4379V18.0004C16.3126 18.3485 16.1743 18.6823 15.9282 18.9285C15.6821 19.1746 15.3482 19.3129 15.0001 19.3129H9.00013C8.65203 19.3129 8.31819 19.1746 8.07205 18.9285C7.82591 18.6823 7.68763 18.3485 7.68763 18.0004V17.4379C7.68737 17.1802 7.62809 16.9259 7.51434 16.6947C7.40058 16.4634 7.23537 16.2613 7.03138 16.1038C6.07146 15.3562 5.29411 14.4002 4.75813 13.3079C4.22215 12.2157 3.94157 11.0158 3.93763 9.79913C3.91325 5.42945 7.44294 1.79288 11.8061 1.68788C12.8811 1.662 13.9504 1.85142 14.9511 2.245C15.9518 2.63857 16.8636 3.22835 17.633 3.97961C18.4023 4.73088 19.0136 5.62845 19.4309 6.61951C19.8481 7.61056 20.0629 8.67507 20.0626 9.75038ZM18.9376 9.75038C18.9379 8.82504 18.753 7.909 18.394 7.05617C18.0349 6.20335 17.5088 5.43098 16.8467 4.78453C16.1846 4.13808 15.3999 3.63062 14.5387 3.29201C13.6776 2.95341 12.7574 2.7905 11.8323 2.81288C8.07856 2.90663 5.042 6.03226 5.06263 9.78976C5.06618 10.8367 5.30771 11.8692 5.76897 12.8091C6.23023 13.749 6.89914 14.5717 7.72513 15.2151C8.0643 15.4777 8.33871 15.8147 8.52724 16.2001C8.71578 16.5854 8.81341 17.0089 8.81263 17.4379V18.0004C8.81263 18.0501 8.83238 18.0978 8.86754 18.133C8.90271 18.1681 8.9504 18.1879 9.00013 18.1879H11.4376V13.7338L8.60263 10.8979C8.50327 10.7913 8.44917 10.6502 8.45174 10.5045C8.45432 10.3588 8.51335 10.2197 8.61641 10.1167C8.71947 10.0136 8.85851 9.95457 9.00423 9.952C9.14996 9.94943 9.29099 10.0035 9.39763 10.1029L12.0001 12.7054L14.6026 10.1029C14.7093 10.0035 14.8503 9.94943 14.996 9.952C15.1417 9.95457 15.2808 10.0136 15.3838 10.1167C15.4869 10.2197 15.5459 10.3588 15.5485 10.5045C15.5511 10.6502 15.497 10.7913 15.3976 10.8979L12.5626 13.7338V18.1879H15.0001C15.0499 18.1879 15.0975 18.1681 15.1327 18.133C15.1679 18.0978 15.1876 18.0501 15.1876 18.0004V17.4379C15.1888 17.0073 15.2882 16.5827 15.4783 16.1964C15.6683 15.81 15.9441 15.4722 16.2845 15.2085C17.1136 14.5612 17.7836 13.7328 18.2434 12.7868C18.7033 11.8408 18.9407 10.8022 18.9376 9.75038Z" fill="#D9D9D9"/>
</svg>
