<svg width="32" height="33" viewBox="0 0 32 33" fill="none" xmlns="http://www.w3.org/2000/svg">
<path d="M29.9372 3.39438C29.7133 3.20131 29.441 3.07298 29.1496 3.0232C28.8582 2.97342 28.5587 3.00408 28.2835 3.11188L2.95097 13.0256C2.49118 13.2047 2.10198 13.5283 1.84194 13.9476C1.5819 14.367 1.46508 14.8594 1.50907 15.3509C1.55306 15.8424 1.75547 16.3062 2.08584 16.6727C2.41622 17.0393 2.85669 17.2886 3.34097 17.3831L9.50097 18.5919V25.4994C9.50096 25.9978 9.6499 26.4848 9.92868 26.8979C10.2075 27.311 10.6033 27.6314 11.0655 27.8178C11.5277 28.0043 12.0351 28.0484 12.5225 27.9444C13.0099 27.8405 13.4551 27.5932 13.801 27.2344L16.6347 24.2956L21.2947 28.3744C21.6198 28.6603 22.0135 28.8568 22.4374 28.9448C22.8612 29.0329 23.3006 29.0093 23.7127 28.8765C24.1247 28.7437 24.4951 28.5062 24.7878 28.1872C25.0805 27.8683 25.2853 27.4788 25.3822 27.0569L30.4597 4.98813C30.5258 4.70008 30.512 4.39946 30.42 4.11863C30.3279 3.83781 30.161 3.58741 29.9372 3.39438ZM18.4272 10.1894L10.6535 15.7606L6.34972 14.9169L18.4272 10.1894ZM12.501 24.2569V20.6681L14.376 22.3119L12.501 24.2569ZM22.646 25.5719L13.411 17.4756L26.6997 7.95313L22.646 25.5719Z" fill="#02091C"/>
</svg>
