<svg width="24" height="24" viewBox="0 0 24 24" fill="none" xmlns="http://www.w3.org/2000/svg">
<path d="M18.1711 11.9996C18.8967 11.0129 19.5217 9.95605 20.0367 8.84486C21.0436 6.60611 21.068 4.84549 20.1117 3.88736C19.1555 2.92924 17.393 2.95549 15.1542 3.96236C14.0431 4.4774 12.9862 5.10239 11.9996 5.82799C11.0129 5.10239 9.95605 4.4774 8.84486 3.96236C6.60611 2.95549 4.84549 2.93111 3.88736 3.88736C2.92924 4.84361 2.95549 6.60611 3.96236 8.84486C4.4774 9.95605 5.10239 11.0129 5.82799 11.9996C5.10239 12.9862 4.4774 14.043 3.96236 15.1542C2.95549 17.393 2.93111 19.1536 3.88736 20.1117C4.35611 20.5805 5.01236 20.812 5.82143 20.812C6.67455 20.812 7.69643 20.5533 8.84486 20.0367C9.95605 19.5217 11.0129 18.8967 11.9996 18.1711C12.9862 18.8967 14.0431 19.5217 15.1542 20.0367C16.3027 20.5533 17.3246 20.812 18.1777 20.812C18.9877 20.812 19.6449 20.5786 20.1117 20.1117C21.0708 19.1536 21.0436 17.393 20.0367 15.1542C19.5217 14.043 18.8967 12.9862 18.1711 11.9996ZM19.312 4.68705C20.1821 5.55705 19.5333 8.08924 17.4558 11.0621C16.7889 10.2276 16.0759 9.43107 15.3202 8.67611C14.5662 7.92016 13.7705 7.20687 12.9371 6.53955C15.9136 4.46299 18.4467 3.8133 19.312 4.68705ZM16.763 11.9996C16.0722 12.8888 15.3267 13.7342 14.5308 14.5308C13.7344 15.329 12.889 16.0767 11.9996 16.7696C11.1101 16.0767 10.2647 15.329 9.4683 14.5308C8.6704 13.7342 7.92271 12.8888 7.22955 11.9996C8.62051 10.2228 10.2223 8.62169 11.9996 7.23143C12.8887 7.924 13.7341 8.67106 14.5308 9.4683C15.328 10.2648 16.0748 11.1101 16.7667 11.9996H16.763ZM4.68705 4.68705C4.9383 4.43486 5.3283 4.31205 5.82799 4.31205C7.05705 4.31205 8.94986 5.06205 11.0658 6.54424C10.2295 7.20902 9.43134 7.92046 8.67518 8.67518C7.91944 9.43044 7.20645 10.2273 6.53955 11.0621C4.46205 8.08549 3.8133 5.5533 4.68705 4.68705ZM4.68705 19.312C3.81705 18.442 4.46674 15.9099 6.5433 12.9371C7.21023 13.7715 7.92321 14.568 8.67893 15.323C9.43295 16.0789 10.2286 16.7922 11.0621 17.4595C8.08549 19.5371 5.5533 20.1858 4.68705 19.312ZM19.312 19.312C18.4421 20.182 15.9099 19.5324 12.9371 17.4549C13.7717 16.7885 14.5683 16.0758 15.323 15.3202C16.0789 14.5662 16.7922 13.7705 17.4596 12.9371C19.5371 15.9136 20.1858 18.4458 19.312 19.312ZM12.9371 11.9996C12.9371 12.185 12.8821 12.3662 12.7791 12.5204C12.676 12.6746 12.5296 12.7947 12.3583 12.8657C12.187 12.9366 11.9985 12.9552 11.8167 12.919C11.6348 12.8829 11.4678 12.7936 11.3366 12.6625C11.2055 12.5314 11.1162 12.3643 11.0801 12.1824C11.0439 12.0006 11.0625 11.8121 11.1334 11.6408C11.2044 11.4695 11.3245 11.3231 11.4787 11.22C11.6329 11.117 11.8141 11.0621 11.9996 11.0621C12.2482 11.0621 12.4866 11.1608 12.6625 11.3366C12.8383 11.5125 12.9371 11.7509 12.9371 11.9996Z" fill="#D9D9D9"/>
</svg>
