<svg width="24" height="24" viewBox="0 0 24 24" fill="none" xmlns="http://www.w3.org/2000/svg">
<path d="M23.0624 11.6246C23.0612 10.6467 22.7774 9.68989 22.2451 8.86943C21.7129 8.04897 20.9549 7.39977 20.0624 6.99995V6.74963C20.0615 5.79804 19.7458 4.87348 19.1646 4.12C18.5834 3.36651 17.7693 2.82642 16.8492 2.58386C15.929 2.3413 14.9545 2.4099 14.0774 2.77897C13.2003 3.14804 12.4698 3.79685 11.9999 4.62432C11.53 3.79685 10.7996 3.14804 9.92251 2.77897C9.0454 2.4099 8.07085 2.3413 7.15069 2.58386C6.23053 2.82642 5.41643 3.36651 4.83523 4.12C4.25404 4.87348 3.93838 5.79804 3.93743 6.74963V6.99995C3.04423 7.39843 2.28558 8.04711 1.7532 8.86758C1.22082 9.68805 0.9375 10.6452 0.9375 11.6232C0.9375 12.6013 1.22082 13.5584 1.7532 14.3789C2.28558 15.1993 3.04423 15.848 3.93743 16.2465V16.4996C3.93838 17.4512 4.25404 18.3758 4.83523 19.1293C5.41643 19.8828 6.23053 20.4229 7.15069 20.6654C8.07085 20.908 9.0454 20.8394 9.92251 20.4703C10.7996 20.1012 11.53 19.4524 11.9999 18.6249C12.4698 19.4524 13.2003 20.1012 14.0774 20.4703C14.9545 20.8394 15.929 20.908 16.8492 20.6654C17.7693 20.4229 18.5834 19.8828 19.1646 19.1293C19.7458 18.3758 20.0615 17.4512 20.0624 16.4996V16.2465C20.9549 15.8475 21.713 15.1988 22.2453 14.3788C22.7776 13.5587 23.0613 12.6023 23.0624 11.6246ZM8.24993 19.6871C7.4215 19.6875 6.62545 19.3654 6.03045 18.7889C5.43546 18.2125 5.08826 17.427 5.06243 16.599C5.37149 16.6576 5.68537 16.6871 5.99994 16.6871H6.74994C6.89912 16.6871 7.04219 16.6279 7.14768 16.5224C7.25317 16.4169 7.31243 16.2738 7.31243 16.1246C7.31243 15.9755 7.25317 15.8324 7.14768 15.7269C7.04219 15.6214 6.89912 15.5621 6.74994 15.5621H5.99994C5.07053 15.5629 4.17082 15.2349 3.46 14.6361C2.74917 14.0373 2.27307 13.2064 2.11593 12.2904C1.95879 11.3744 2.13074 10.4323 2.60135 9.63083C3.07197 8.82938 3.81092 8.22024 4.68743 7.9112C4.79715 7.87241 4.89214 7.80054 4.9593 7.70551C5.02646 7.61047 5.0625 7.49694 5.06243 7.38057V6.74963C5.06243 5.90426 5.39826 5.0935 5.99603 4.49573C6.5938 3.89796 7.40456 3.56213 8.24993 3.56213C9.09531 3.56213 9.90607 3.89796 10.5038 4.49573C11.1016 5.0935 11.4374 5.90426 11.4374 6.74963V13.5981C11.034 13.1535 10.5419 12.7983 9.99299 12.5553C9.44402 12.3123 8.85028 12.1869 8.24993 12.1871C8.10075 12.1871 7.95768 12.2464 7.85219 12.3519C7.7467 12.4574 7.68743 12.6004 7.68743 12.7496C7.68743 12.8988 7.7467 13.0419 7.85219 13.1474C7.95768 13.2529 8.10075 13.3121 8.24993 13.3121C9.09531 13.3121 9.90607 13.648 10.5038 14.2457C11.1016 14.8435 11.4374 15.6543 11.4374 16.4996C11.4374 17.345 11.1016 18.1558 10.5038 18.7535C9.90607 19.3513 9.09531 19.6871 8.24993 19.6871ZM17.9999 15.5621H17.2499C17.1008 15.5621 16.9577 15.6214 16.8522 15.7269C16.7467 15.8324 16.6874 15.9755 16.6874 16.1246C16.6874 16.2738 16.7467 16.4169 16.8522 16.5224C16.9577 16.6279 17.1008 16.6871 17.2499 16.6871H17.9999C18.3145 16.6871 18.6284 16.6576 18.9374 16.599C18.9179 17.2248 18.7145 17.8311 18.3526 18.342C17.9907 18.8529 17.4863 19.246 16.9025 19.4721C16.3186 19.6982 15.681 19.7473 15.0694 19.6133C14.4578 19.4793 13.8992 19.1682 13.4633 18.7187C13.0274 18.2692 12.7335 17.7013 12.6184 17.0858C12.5032 16.4704 12.5719 15.8347 12.8158 15.258C13.0597 14.6813 13.468 14.1892 13.9898 13.8432C14.5116 13.4971 15.1238 13.3124 15.7499 13.3121C15.8991 13.3121 16.0422 13.2529 16.1477 13.1474C16.2532 13.0419 16.3124 12.8988 16.3124 12.7496C16.3124 12.6004 16.2532 12.4574 16.1477 12.3519C16.0422 12.2464 15.8991 12.1871 15.7499 12.1871C15.1496 12.1869 14.5558 12.3123 14.0069 12.5553C13.4579 12.7983 12.9659 13.1535 12.5624 13.5981V6.74963C12.5624 5.90426 12.8983 5.0935 13.496 4.49573C14.0938 3.89796 14.9046 3.56213 15.7499 3.56213C16.5953 3.56213 17.4061 3.89796 18.0038 4.49573C18.6016 5.0935 18.9374 5.90426 18.9374 6.74963V7.38057C18.9374 7.49694 18.9734 7.61047 19.0406 7.70551C19.1077 7.80054 19.2027 7.87241 19.3124 7.9112C20.189 8.22024 20.9279 8.82938 21.3985 9.63083C21.8691 10.4323 22.0411 11.3744 21.8839 12.2904C21.7268 13.2064 21.2507 14.0373 20.5399 14.6361C19.8291 15.2349 18.9293 15.5629 17.9999 15.5621ZM19.3124 10.4996C19.3124 10.6488 19.2532 10.7919 19.1477 10.8974C19.0422 11.0029 18.8991 11.0621 18.7499 11.0621H18.3749C17.5296 11.0621 16.7188 10.7263 16.121 10.1285C15.5233 9.53076 15.1874 8.72001 15.1874 7.87463V7.49963C15.1874 7.35045 15.2467 7.20738 15.3522 7.10189C15.4577 6.9964 15.6008 6.93713 15.7499 6.93713C15.8991 6.93713 16.0422 6.9964 16.1477 7.10189C16.2532 7.20738 16.3124 7.35045 16.3124 7.49963V7.87463C16.3124 8.42164 16.5297 8.94625 16.9165 9.33304C17.3033 9.71984 17.8279 9.93713 18.3749 9.93713H18.7499C18.8991 9.93713 19.0422 9.9964 19.1477 10.1019C19.2532 10.2074 19.3124 10.3504 19.3124 10.4996ZM5.62494 11.0621H5.24993C5.10075 11.0621 4.95768 11.0029 4.85219 10.8974C4.7467 10.7919 4.68743 10.6488 4.68743 10.4996C4.68743 10.3504 4.7467 10.2074 4.85219 10.1019C4.95768 9.9964 5.10075 9.93713 5.24993 9.93713H5.62494C6.17194 9.93713 6.69655 9.71984 7.08334 9.33304C7.47014 8.94625 7.68743 8.42164 7.68743 7.87463V7.49963C7.68743 7.35045 7.7467 7.20738 7.85219 7.10189C7.95768 6.9964 8.10075 6.93713 8.24993 6.93713C8.39912 6.93713 8.54219 6.9964 8.64768 7.10189C8.75317 7.20738 8.81243 7.35045 8.81243 7.49963V7.87463C8.81243 8.72001 8.47661 9.53076 7.87884 10.1285C7.28107 10.7263 6.47031 11.0621 5.62494 11.0621Z" fill="#D9D9D9"/>
</svg>
