<svg width="24" height="25" viewBox="0 0 24 25" fill="none" xmlns="http://www.w3.org/2000/svg">
<path d="M12 2.9375C9.46387 2.9375 7.03161 3.94497 5.23829 5.73829C3.44497 7.53161 2.4375 9.96387 2.4375 12.5C2.4375 15.0361 3.44497 17.4684 5.23829 19.2617C7.03161 21.055 9.46387 22.0625 12 22.0625C13.9809 22.0625 16.0603 21.4672 17.5613 20.4688C17.6856 20.3861 17.772 20.2574 17.8014 20.111C17.8309 19.9647 17.801 19.8126 17.7183 19.6883C17.6356 19.564 17.5069 19.4776 17.3606 19.4481C17.2142 19.4187 17.0621 19.4486 16.9378 19.5312C15.6347 20.3984 13.7419 20.9375 12 20.9375C10.3312 20.9375 8.69992 20.4426 7.31238 19.5155C5.92484 18.5884 4.84338 17.2706 4.20477 15.7289C3.56615 14.1871 3.39906 12.4906 3.72462 10.8539C4.05019 9.21721 4.85378 7.71379 6.03379 6.53379C7.21379 5.35378 8.71721 4.55019 10.3539 4.22462C11.9906 3.89906 13.6871 4.06615 15.2289 4.70477C16.7706 5.34338 18.0884 6.42484 19.0155 7.81238C19.9426 9.19992 20.4375 10.8312 20.4375 12.5C20.4375 15.2731 19.1456 15.6875 18.375 15.6875C17.6044 15.6875 16.3125 15.2731 16.3125 12.5V8.75C16.3125 8.60082 16.2532 8.45774 16.1477 8.35225C16.0423 8.24676 15.8992 8.1875 15.75 8.1875C15.6008 8.1875 15.4577 8.24676 15.3523 8.35225C15.2468 8.45774 15.1875 8.60082 15.1875 8.75V9.59375C14.5829 8.92893 13.7857 8.4696 12.9073 8.27993C12.0289 8.09026 11.1132 8.17973 10.2881 8.53584C9.46306 8.89195 8.76985 9.49691 8.30536 10.2662C7.84086 11.0355 7.62828 11.9306 7.69733 12.8266C7.76637 13.7226 8.11359 14.5746 8.69046 15.2637C9.26733 15.9527 10.045 16.4443 10.9149 16.6698C11.7848 16.8953 12.7034 16.8434 13.5424 16.5214C14.3813 16.1994 15.0988 15.6234 15.5944 14.8738C16.1025 16.1188 17.0625 16.8125 18.375 16.8125C20.3709 16.8125 21.5625 15.2 21.5625 12.5C21.5595 9.96478 20.5511 7.53425 18.7584 5.74158C16.9657 3.94891 14.5352 2.94048 12 2.9375ZM12 15.6875C11.3696 15.6875 10.7533 15.5006 10.2291 15.1503C9.70494 14.8001 9.29639 14.3022 9.05513 13.7198C8.81388 13.1374 8.75076 12.4965 8.87375 11.8781C8.99674 11.2598 9.30032 10.6919 9.7461 10.2461C10.1919 9.80032 10.7598 9.49674 11.3781 9.37375C11.9965 9.25076 12.6374 9.31388 13.2198 9.55513C13.8022 9.79639 14.3001 10.2049 14.6503 10.7291C15.0006 11.2533 15.1875 11.8696 15.1875 12.5C15.1875 13.3454 14.8517 14.1561 14.2539 14.7539C13.6561 15.3517 12.8454 15.6875 12 15.6875Z" fill="white"/>
</svg>
