<svg width="24" height="24" viewBox="0 0 24 24" fill="none" xmlns="http://www.w3.org/2000/svg">
<path d="M11.9997 7.68835C11.1467 7.68835 10.313 7.94127 9.60377 8.41514C8.89459 8.889 8.34184 9.56252 8.01544 10.3505C7.68904 11.1385 7.60363 12.0056 7.77003 12.8422C7.93643 13.6787 8.34716 14.4471 8.95027 15.0502C9.55339 15.6534 10.3218 16.0641 11.1583 16.2305C11.9949 16.3969 12.862 16.3115 13.65 15.9851C14.438 15.6587 15.1115 15.1059 15.5854 14.3967C16.0592 13.6876 16.3122 12.8538 16.3122 12.0008C16.3107 10.8576 15.8559 9.76152 15.0474 8.9531C14.239 8.14467 13.143 7.68984 11.9997 7.68835ZM11.9997 15.1883C11.3692 15.1883 10.753 15.0014 10.2288 14.6512C9.70461 14.3009 9.29606 13.8031 9.0548 13.2207C8.81355 12.6382 8.75043 11.9973 8.87342 11.379C8.99641 10.7607 9.29999 10.1927 9.74577 9.74695C10.1915 9.30117 10.7595 8.99759 11.3778 8.8746C11.9961 8.75161 12.637 8.81473 13.2195 9.05598C13.8019 9.29724 14.2997 9.70579 14.65 10.23C15.0002 10.7542 15.1872 11.3704 15.1872 12.0008C15.1872 12.8462 14.8513 13.657 14.2536 14.2548C13.6558 14.8525 12.845 15.1883 11.9997 15.1883ZM20.0622 12.2671C20.0678 12.0899 20.0678 11.9118 20.0622 11.7346L21.4994 9.93835C21.5543 9.86959 21.5923 9.7889 21.6104 9.70276C21.6285 9.61663 21.6261 9.52745 21.6034 9.44241C21.3786 8.59498 21.0419 7.78127 20.6022 7.02272C20.5585 6.94574 20.4973 6.88014 20.4235 6.83127C20.3497 6.7824 20.2654 6.75164 20.1775 6.74147L17.8853 6.48741C17.7647 6.35804 17.6397 6.23304 17.5103 6.11241L17.2553 3.81929C17.2451 3.73136 17.2144 3.64708 17.1655 3.57328C17.1166 3.49949 17.051 3.43827 16.974 3.3946C16.2164 2.95618 15.404 2.62013 14.5581 2.39522C14.4728 2.37295 14.3835 2.37101 14.2974 2.38958C14.2113 2.40814 14.1307 2.44668 14.0622 2.5021L12.2622 3.94304C12.085 3.93741 11.9069 3.93741 11.7297 3.94304L9.93717 2.50116C9.86841 2.44623 9.78772 2.4082 9.70158 2.39012C9.61545 2.37205 9.52627 2.37444 9.44123 2.3971C8.5938 2.62196 7.78009 2.95867 7.02154 3.39835C6.94456 3.44202 6.87896 3.50324 6.83009 3.57703C6.78122 3.65083 6.75046 3.73511 6.74029 3.82304L6.48998 6.11522C6.36061 6.23647 6.23561 6.36147 6.11498 6.49022L3.82092 6.75085C3.733 6.76101 3.64871 6.79178 3.57492 6.84065C3.50112 6.88952 3.4399 6.95511 3.39623 7.0321C2.95782 7.78971 2.62177 8.6021 2.39686 9.44804C2.37512 9.53225 2.3732 9.62035 2.39126 9.70543C2.40931 9.7905 2.44685 9.87023 2.50092 9.93835L3.94186 11.7383C3.93623 11.9155 3.93623 12.0937 3.94186 12.2709L2.49998 14.068C2.44505 14.1368 2.40702 14.2175 2.38894 14.3036C2.37087 14.3898 2.37326 14.4789 2.39592 14.564C2.62117 15.4098 2.95787 16.2219 3.39717 16.979C3.44084 17.056 3.50206 17.1216 3.57585 17.1704C3.64965 17.2193 3.73393 17.2501 3.82186 17.2602L6.11404 17.5143C6.23529 17.6437 6.36029 17.7687 6.48905 17.8893L6.74967 20.1796C6.75983 20.2675 6.7906 20.3518 6.83947 20.4256C6.88834 20.4994 6.95393 20.5606 7.03092 20.6043C7.78853 21.0427 8.60092 21.3788 9.44686 21.6037C9.5319 21.6263 9.62107 21.6287 9.70721 21.6106C9.79334 21.5926 9.87403 21.5545 9.94279 21.4996L11.7334 20.0633C11.9106 20.069 12.0887 20.069 12.2659 20.0633L14.0669 21.5052C14.1667 21.5849 14.2907 21.6282 14.4184 21.628C14.4671 21.6279 14.5156 21.6216 14.5628 21.6093C15.4086 21.384 16.2207 21.0473 16.9778 20.608C17.0548 20.5644 17.1204 20.5031 17.1692 20.4294C17.2181 20.3556 17.2489 20.2713 17.259 20.1833L17.5131 17.8912C17.6425 17.7705 17.7675 17.6455 17.8881 17.5162L20.1812 17.2612C20.2692 17.251 20.3534 17.2202 20.4272 17.1714C20.501 17.1225 20.5623 17.0569 20.6059 16.9799C21.0445 16.2224 21.3806 15.41 21.6053 14.564C21.628 14.4789 21.6303 14.3898 21.6123 14.3036C21.5942 14.2175 21.5562 14.1368 21.5012 14.068L20.0622 12.2671ZM19.7715 16.1699L17.5553 16.4165C17.4168 16.4324 17.2892 16.4993 17.1972 16.604C17.0119 16.8127 16.8143 17.0102 16.6056 17.1955C16.5009 17.2876 16.4341 17.4152 16.4181 17.5537L16.1715 19.769C15.6527 20.0457 15.1075 20.2699 14.544 20.4383L12.8031 19.0452C12.7033 18.9656 12.5793 18.9222 12.4515 18.9224H12.4178C12.1393 18.9383 11.8601 18.9383 11.5815 18.9224C11.4424 18.9139 11.3051 18.9573 11.1962 19.0443L9.45623 20.4383C8.89332 20.269 8.34874 20.0438 7.83061 19.7662L7.58404 17.5518C7.56808 17.4133 7.50126 17.2857 7.39654 17.1937C7.18781 17.0084 6.99028 16.8108 6.80498 16.6021C6.71296 16.4974 6.58534 16.4306 6.44686 16.4146L4.23154 16.168C3.95512 15.6507 3.73089 15.107 3.56217 14.5452L4.95529 12.8043C5.04225 12.6954 5.08568 12.5581 5.07717 12.419C5.06123 12.1405 5.06123 11.8612 5.07717 11.5827C5.08568 11.4436 5.04225 11.3063 4.95529 11.1974L3.56217 9.45741C3.73153 8.8945 3.95671 8.34992 4.23436 7.83179L6.44873 7.58522C6.58722 7.56926 6.71484 7.50244 6.80686 7.39772C6.99215 7.18899 7.18969 6.99146 7.39842 6.80616C7.50314 6.71414 7.56995 6.58652 7.58592 6.44804L7.83248 4.23272C8.34987 3.9563 8.89349 3.73207 9.45529 3.56335L11.1962 4.95647C11.3051 5.04343 11.4424 5.08686 11.5815 5.07835C11.8601 5.06241 12.1393 5.06241 12.4178 5.07835C12.5569 5.08686 12.6942 5.04343 12.8031 4.95647L14.5431 3.56335C15.106 3.73271 15.6506 3.95789 16.1687 4.23554L16.4153 6.45179C16.4313 6.59027 16.4981 6.71789 16.6028 6.80991C16.8115 6.99521 17.0091 7.19274 17.1944 7.40147C17.2864 7.50619 17.414 7.57301 17.5525 7.58897L19.7678 7.83554C20.0441 8.35232 20.2683 8.89531 20.4372 9.45648L19.044 11.1974C18.9571 11.3063 18.9137 11.4436 18.9222 11.5827C18.9381 11.8612 18.9381 12.1405 18.9222 12.419C18.9137 12.5581 18.9571 12.6954 19.044 12.8043L20.4372 14.5443C20.2684 15.1071 20.0439 15.6517 19.7669 16.1699H19.7715Z" fill="#D9D9D9"/>
</svg>
