<svg width="24" height="24" viewBox="0 0 24 24" fill="none" xmlns="http://www.w3.org/2000/svg">
<path d="M20.8125 5.99943C20.8124 5.46729 20.6613 4.94609 20.3768 4.49638C20.0923 4.04667 19.6861 3.6869 19.2053 3.45886C18.7245 3.23081 18.1889 3.14384 17.6606 3.20805C17.1324 3.27227 16.6332 3.48503 16.221 3.82163C15.8088 4.15823 15.5006 4.60485 15.3322 5.10962C15.1637 5.61439 15.1419 6.1566 15.2693 6.67327C15.3967 7.18994 15.668 7.65987 16.0518 8.02848C16.4356 8.39709 16.9161 8.64925 17.4375 8.75568V9.74943C17.4375 10.197 17.2597 10.6262 16.9432 10.9427C16.6268 11.2591 16.1976 11.4369 15.75 11.4369H9.00001C8.39127 11.4357 7.79876 11.6332 7.31251 11.9994V8.75568C7.99541 8.61628 8.60222 8.22828 9.0153 7.66691C9.42839 7.10553 9.61832 6.41077 9.54826 5.71732C9.47821 5.02387 9.15317 4.38113 8.63615 3.91371C8.11914 3.4463 7.44699 3.1875 6.75001 3.1875C6.05303 3.1875 5.38087 3.4463 4.86386 3.91371C4.34684 4.38113 4.0218 5.02387 3.95175 5.71732C3.8817 6.41077 4.07162 7.10553 4.48471 7.66691C4.89779 8.22828 5.50461 8.61628 6.18751 8.75568V15.2432C5.50461 15.3826 4.89779 15.7706 4.48471 16.3319C4.07162 16.8933 3.8817 17.5881 3.95175 18.2815C4.0218 18.975 4.34684 19.6177 4.86386 20.0851C5.38087 20.5526 6.05303 20.8114 6.75001 20.8114C7.44699 20.8114 8.11914 20.5526 8.63615 20.0851C9.15317 19.6177 9.47821 18.975 9.54826 18.2815C9.61832 17.5881 9.42839 16.8933 9.0153 16.3319C8.60222 15.7706 7.99541 15.3826 7.31251 15.2432V14.2494C7.31251 13.8019 7.4903 13.3727 7.80676 13.0562C8.12323 12.7397 8.55245 12.5619 9.00001 12.5619H15.75C16.4959 12.5619 17.2113 12.2656 17.7387 11.7382C18.2662 11.2107 18.5625 10.4953 18.5625 9.74943V8.75568C19.1974 8.62519 19.7678 8.27978 20.1777 7.7777C20.5876 7.27562 20.8118 6.64756 20.8125 5.99943ZM5.06251 5.99943C5.06251 5.66567 5.16148 5.33941 5.3469 5.0619C5.53233 4.78439 5.79588 4.5681 6.10423 4.44038C6.41258 4.31266 6.75188 4.27924 7.07922 4.34435C7.40656 4.40946 7.70725 4.57018 7.94325 4.80619C8.17925 5.04219 8.33997 5.34287 8.40508 5.67021C8.47019 5.99756 8.43678 6.33686 8.30905 6.64521C8.18133 6.95356 7.96504 7.21711 7.68753 7.40253C7.41002 7.58796 7.08376 7.68693 6.75001 7.68693C6.30245 7.68693 5.87323 7.50914 5.55676 7.19267C5.2403 6.8762 5.06251 6.44698 5.06251 5.99943ZM8.43751 17.9994C8.43751 18.3332 8.33854 18.6594 8.15311 18.937C7.96769 19.2145 7.70413 19.4308 7.39578 19.5585C7.08743 19.6862 6.74813 19.7196 6.42079 19.6545C6.09345 19.5894 5.79276 19.4287 5.55676 19.1927C5.32076 18.9567 5.16004 18.656 5.09493 18.3286C5.02982 18.0013 5.06324 17.662 5.19096 17.3536C5.31868 17.0453 5.53497 16.7817 5.81248 16.5963C6.08999 16.4109 6.41625 16.3119 6.75001 16.3119C7.19756 16.3119 7.62678 16.4897 7.94325 16.8062C8.25972 17.1227 8.43751 17.5519 8.43751 17.9994ZM18 7.68693C17.6663 7.68693 17.34 7.58796 17.0625 7.40253C16.785 7.21711 16.5687 6.95356 16.441 6.64521C16.3132 6.33686 16.2798 5.99756 16.3449 5.67021C16.41 5.34287 16.5708 5.04219 16.8068 4.80619C17.0428 4.57018 17.3434 4.40946 17.6708 4.34435C17.9981 4.27924 18.3374 4.31266 18.6458 4.44038C18.9541 4.5681 19.2177 4.78439 19.4031 5.0619C19.5885 5.33941 19.6875 5.66567 19.6875 5.99943C19.6875 6.44698 19.5097 6.8762 19.1932 7.19267C18.8768 7.50914 18.4476 7.68693 18 7.68693Z" fill="#D9D9D9"/>
</svg>
