<svg width="24" height="25" viewBox="0 0 24 25" fill="none" xmlns="http://www.w3.org/2000/svg">
<path d="M22.0841 3.09712C21.9936 3.019 21.8836 2.96706 21.7658 2.9469C21.648 2.92674 21.5269 2.93914 21.4156 2.98275L2.41627 10.4181C2.18518 10.5085 1.98966 10.6714 1.85908 10.8825C1.7285 11.0935 1.6699 11.3412 1.69209 11.5883C1.71428 11.8355 1.81606 12.0688 1.98214 12.2532C2.14823 12.4375 2.36964 12.5631 2.61315 12.6109L7.6869 13.6074V19.2502C7.687 19.5118 7.76528 19.7675 7.91168 19.9842C8.05808 20.201 8.26593 20.3691 8.50855 20.467C8.75117 20.5648 9.01749 20.5879 9.27333 20.5333C9.52917 20.4787 9.76285 20.3489 9.9444 20.1606L12.4419 17.5702L16.34 20.9874C16.578 21.198 16.8847 21.3144 17.2025 21.3146C17.3413 21.3143 17.4792 21.2925 17.6113 21.2499C17.8278 21.1814 18.0226 21.0573 18.1763 20.89C18.3299 20.7227 18.437 20.5181 18.4869 20.2965L22.295 3.74118C22.3218 3.6248 22.3163 3.50331 22.2791 3.38982C22.242 3.27632 22.1745 3.17512 22.0841 3.09712ZM2.81658 11.5037C2.81299 11.494 2.81299 11.4834 2.81658 11.4737C2.82082 11.4704 2.82557 11.4679 2.83065 11.4662L17.8035 5.60493L8.11909 12.5424L2.83065 11.5074L2.81658 11.5037ZM9.1344 19.3787C9.10856 19.4055 9.07532 19.424 9.03892 19.4319C9.00252 19.4397 8.96461 19.4365 8.93002 19.4228C8.89542 19.409 8.86572 19.3852 8.84468 19.3545C8.82364 19.3238 8.81223 19.2875 8.8119 19.2502V14.3856L11.5953 16.8231L9.1344 19.3787ZM17.391 20.0424C17.384 20.0741 17.3687 20.1034 17.3466 20.1271C17.3245 20.1509 17.2965 20.1683 17.2653 20.1774C17.2336 20.1886 17.1994 20.191 17.1664 20.1844C17.1335 20.1778 17.1029 20.1624 17.0778 20.1399L9.15315 13.1884L20.9056 4.76587L17.391 20.0424Z" fill="white"/>
</svg>
