<svg width="36" height="36" viewBox="0 0 36 36" fill="none" xmlns="http://www.w3.org/2000/svg">
  <path d="M33.1261 3.89568C32.9905 3.7785 32.8254 3.70059 32.6487 3.67035C32.472 3.64012 32.2904 3.65871 32.1235 3.72412L3.62441 14.8771C3.27777 15.0127 2.98449 15.2572 2.78862 15.5737C2.59275 15.8902 2.50486 16.2617 2.53814 16.6325C2.57143 17.0032 2.72409 17.3532 2.97322 17.6297C3.22234 17.9063 3.55447 18.0946 3.91972 18.1663L11.5303 19.6612V28.1254C11.5305 28.5178 11.6479 28.9012 11.8675 29.2264C12.0871 29.5516 12.3989 29.8037 12.7628 29.9505C13.1268 30.0972 13.5262 30.1319 13.91 30.05C14.2937 29.9681 14.6443 29.7734 14.9166 29.4908L18.6628 25.6054L24.51 30.7312C24.867 31.047 25.3271 31.2216 25.8038 31.2219C26.0119 31.2215 26.2188 31.1887 26.4169 31.1249C26.7417 31.0221 27.0339 30.836 27.2644 30.585C27.4949 30.3341 27.6555 30.0271 27.7303 29.6947L33.4425 4.86178C33.4827 4.6872 33.4744 4.50497 33.4187 4.33472C33.3629 4.16448 33.2618 4.01268 33.1261 3.89568ZM4.22488 16.5055C4.21949 16.491 4.21949 16.475 4.22488 16.4605C4.23123 16.4556 4.23836 16.4518 4.24597 16.4493L26.7052 7.6574L12.1786 18.0637L4.24597 16.5112L4.22488 16.5055ZM13.7016 28.318C13.6628 28.3582 13.613 28.386 13.5584 28.3978C13.5038 28.4096 13.4469 28.4048 13.395 28.3842C13.3431 28.3635 13.2986 28.3278 13.267 28.2817C13.2355 28.2357 13.2183 28.1812 13.2178 28.1254V20.8283L17.393 24.4846L13.7016 28.318ZM26.0864 29.3137C26.0761 29.3612 26.0531 29.4051 26.02 29.4407C25.9868 29.4763 25.9447 29.5024 25.898 29.5162C25.8504 29.5329 25.7992 29.5365 25.7497 29.5266C25.7002 29.5167 25.6543 29.4936 25.6168 29.4599L13.7297 19.0326L31.3585 6.39881L26.0864 29.3137Z" fill="#02091C" />
</svg>